<svg xmlns="http://www.w3.org/2000/svg" xmlns:xlink="http://www.w3.org/1999/xlink" width="64" height="64"><defs><linearGradient id="b" x1="1073.403" x2="1097.116" y1="516.451" y2="544.308" gradientTransform="translate(119.645 131.06) scale(1.02524)" gradientUnits="userSpaceOnUse" xlink:href="#a"/><linearGradient id="a"><stop offset="0" stop-color="#16ff6a"/><stop offset="1" stop-color="#0090a5"/></linearGradient></defs><g transform="translate(-1215.56 -659.74)"><rect width="32" height="32" x="1215.559" y="659.741" fill="url(#b)" rx="6.763" ry="6.763"/><path fill="#fff" style="text-indent:0;text-align:start;line-height:normal;text-transform:none;block-progression:tb;marker:none;-inkscape-font-specification:Sans" d="m 1224.3821,667.5329 c -0.9863,0 -1.799,0.81278 -1.799,1.79896 l 0,7.19586 c 0,0.9863 0.8127,1.79895 1.799,1.79895 l 0.5622,0 0,0.59966 c 0,0.98632 0.8088,1.80436 1.7989,1.79896 l 0.6746,0 0,1.79896 0,1.42418 1.012,-1.01197 2.2112,-2.21117 8.0953,0 c 0.9869,9e-4 1.799,-0.81264 1.799,-1.79896 l 0,-7.19584 c 0,-0.98619 -0.813,-1.79862 -1.799,-1.79898 l -0.5622,0 0,-0.59965 c 0,-0.98618 -0.8127,-1.79896 -1.7989,-1.79896 l -11.9931,0 z m 0,1.19931 11.9931,0 c 0.3426,0 0.5996,0.25714 0.5996,0.59965 l 0,0.59965 -10.2316,0 c -0.9865,-2.2e-4 -1.7989,0.81279 -1.7989,1.79898 l 0,5.39688 -0.5622,0 c -0.3426,0 -0.5997,-0.25701 -0.5997,-0.59965 l 0,-7.19586 c 0,-0.34251 0.2571,-0.59965 0.5997,-0.59965 z m 3.4105,3.59792 a 0.60692969,0.60692969 0 0 1 0.037,0 0.60228327,0.60228327 0 0 1 0.075,0 0.59971381,0.59971381 0 0 1 0.1124,0 l 4.7972,0 a 0.59971381,0.59971381 0 1 1 0,1.19931 l -4.7972,0 a 0.61010747,0.61010747 0 0 1 -0.2249,-1.19931 z m 0,2.39862 a 0.60692969,0.60692969 0 0 1 0.037,0 0.60228327,0.60228327 0 0 1 0.075,0 0.59971381,0.59971381 0 0 1 0.1124,0 l 9.5945,0 a 0.59971381,0.59971381 0 1 1 0,1.19932 l -9.5945,0 a 0.61011238,0.61011238 0 0 1 -0.2249,-1.19932 z m 0,2.39862 a 0.60692969,0.60692969 0 0 1 0.037,0 0.60228327,0.60228327 0 0 1 0.075,0 0.59971381,0.59971381 0 0 1 0.1124,0 l 7.1958,0 a 0.59971381,0.59971381 0 1 1 0,1.1993 l -7.1958,0 a 0.61010359,0.61010359 0 0 1 -0.2249,-1.1993 z" color="#000" font-family="Sans" font-weight="400" overflow="visible"/></g></svg>